<svg width="180mm" height="45mm" viewBox="0 0 180 45" xmlns:xlink="http://www.w3.org/1999/xlink" xmlns="http://www.w3.org/2000/svg">
  <defs>
    <symbol overflow="visible" id="a">
      <path style="stroke:none" d="M127.531 0v-65.86q0-6.046-2.672-9.937c-1.78-2.601-4.511-3.906-8.187-3.906-1.406 0-2.711.148-3.906.437q-1.8.44-4.157.97-5.08 1.14-9.468.093-4.378-1.061-8.047-4.828 9.375-5.515 15.984-7.39 6.61-1.89 11.344-1.891c4.601 0 8.875.851 12.812 2.546q5.919 2.532 9.516 8.672 3.593 6.128 3.594 16.985V0ZM14.891 0v-68.5c0-3.258-.196-6.727-.578-10.406-.376-3.688-1.06-7.57-2.047-11.656h12.609q4.201 4.734 5.516 9.374 1.312 4.641 1.312 9.891V0Zm56.406 0v-65.86q-.002-6.046-2.5-9.937c-1.668-2.601-4.219-3.906-7.656-3.906q-2.111 0-3.688.36-1.582.344-3.844.859-5.096 1.142-9.297.093-4.207-1.043-7.874-4.812 9.374-5.514 15.624-7.313 6.265-1.794 11-1.796 6.826.002 12.516 2.546 5.7 2.532 9.11 8.672 3.42 6.128 3.421 16.985V0Zm0 0"/>
    </symbol>
    <symbol overflow="visible" id="b">
      <path style="stroke:none" d="M52.203 1.75q-9.645-.002-17.484-3.594-7.83-3.591-13.39-10.031-5.567-6.434-8.548-15.14-2.97-8.718-2.969-19.047c0-9.47 1.735-17.66 5.204-24.579q5.215-10.372 14.843-16.015 9.639-5.656 22.875-5.656 9.011 0 15.938 3.984 6.92 3.985 11.156 10.86 4.248 6.876 5.25 15.593c.676 5.805.05 11.828-1.875 18.078H32.406c1.227-3.32 2.961-6.11 5.203-8.36q3.373-3.375 9.688-3.374h22.25c.52-4.5.004-8.57-1.547-12.219q-2.315-5.468-6.828-8.703-4.5-3.248-10.203-3.25-7.347 0-12.953 3.937-5.614 3.939-8.766 11.516c-2.105 5.055-3.156 11.172-3.156 18.36 0 6.949 1.21 13.054 3.64 18.312q3.64 7.877 9.938 12.297 6.312 4.423 14.281 4.422 6.045 0 11.469-1.266 5.436-1.279 12.875-5.047l4.39 11.563Q74.263-1.31 66.376.219c-5.25 1.02-9.977 1.531-14.172 1.531m0 0"/>
    </symbol>
    <symbol overflow="visible" id="c">
      <path style="stroke:none" d="M47.469 1.922c-9.524 0-16.836-3.117-21.938-9.36q-7.657-9.375-7.656-26.015v-45.031H1.75v-7.875l16.125-4.204v-23.124l15.406-4.907v87.063q0 9.016 3.89 15.11 3.904 6.093 10.298 6.093a35 35 0 0 0 6.61-.61c2.132-.414 4.718-1.093 7.75-2.03l3.858 11.046C61.25-.46 57.802.54 55.345 1.094q-3.674.827-7.875.828m6.828-80.406q-4.112 0-6.953-1.61a14.2 14.2 0 0 1-4.735-4.375 25.5 25.5 0 0 1-3.015-6.094H64.28v12.079zm0 0"/>
    </symbol>
    <symbol overflow="visible" id="d">
      <path style="stroke:none" d="M37.484 1.75q-9.11 0-15.718-3.281-6.61-3.28-10.157-8.89c-2.367-3.74-3.546-7.974-3.546-12.704q0-8.842 4.64-14.672 4.641-5.826 15.281-9.406 10.64-3.593 28.594-5.703-.346 2.11-1.531 5-1.189 2.894-3.813 5.343-2.625 2.455-7.265 3.157-7.705 1.219-11.688 3.593-3.984 2.363-5.437 5.376-1.44 3.018-1.438 6.265 0 5.344 3.844 9.328c2.57 2.656 6.078 3.985 10.516 3.985q5.952 0 12-2.97 6.045-2.982 11.125-9.64v-32.765q-.001-10.42-5.047-16.938c-3.356-4.351-9.032-6.531-17.031-6.531q-4.735 0-9.376.969c-3.093.636-6.742 1.714-10.937 3.234l-4.031-10.86q8.577-3.668 15.14-4.812 6.575-1.139 12.36-1.14 16.811.002 26.094 9.765Q79.357-72.779 79.358-55v25.047q-.002 10.517.829 17.922c.55 4.93 1.207 8.937 1.968 12.031H70.25q-2.454-1.483-3.86-3.844a33.5 33.5 0 0 1-2.453-5.094l-.171-3.156-1.938 3.156C57.391-4.5 53.273-1.609 49.484-.265q-5.69 2.016-12 2.016m0 0"/>
    </symbol>
    <symbol overflow="visible" id="f"/>
    <symbol overflow="visible" id="i">
      <path style="stroke:none" d="M15.234 0v-59.906q0-8.06-.656-16.297-.657-8.231-2.14-14.36H24.53c1.864 1.93 3.188 4.047 3.969 6.36q1.186 3.456 1.984 7.656v3.156l1.391-3.156q3.42-6.748 9.813-11 6.386-4.249 13.484-4.25c1.344 0 2.71.121 4.11.36q2.107.345 4.484 1.046l-2.11 13.672q-2.704-.701-4.765-.875a41 41 0 0 0-3.641-.187q-5.425.001-10.594 2.984-5.172 2.971-8.5 9.453-3.327 6.487-3.328 17V0Zm0 0"/>
    </symbol>
    <symbol overflow="visible" id="e"/>
    <symbol overflow="visible" id="g"/>
    <symbol overflow="visible" id="h"/>
    <symbol overflow="visible" id="j">
      <path style="stroke:none" d="M35.875-19.11q-.001 2.642-2.422 3.532-1.63.563-23.39 2.094c.32 2.086 1.539 3.859 3.656 5.328q3.03 2.11 6.5 2.11 5.982 0 10.968-3.626c.407-.312.805-.625 1.204-.937q.311 0 .406.078.093.065 1.406 2.469 1.326 2.407 1.328 2.578-.001.22-.593.828Q29.373.892 20.672.89q-8.768 0-13.984-4.922-5.22-4.935-5.22-13.157-.001-7.324 5-12.78 5.25-5.656 12.891-5.657 7.108 0 11.86 4.922c3.101 3.18 4.656 7.043 4.656 11.594m-9-2.171q0-2.952-2.484-5.219c-1.649-1.52-3.5-2.281-5.563-2.281-2.324 0-4.387.883-6.187 2.64-1.805 1.75-2.703 3.715-2.703 5.891q0 .75 1.359.75 5.59.002 13.39-1.062 2.187-.296 2.188-.72m0 0"/>
    </symbol>
    <symbol overflow="visible" id="k">
      <path style="stroke:none" d="M40.188-49.64c0 3.062-.149 7.652-.438 13.765q-.438 9.157-.437 13.703c0 9.375.21 16.469.64 21.281L40-.42q.03.346-1.031.452-.72.076-2.032 0c-1.062-.07-1.558-.11-1.484-.11-.375 0-.93.04-1.656.11-.73.07-1.281.11-1.656.11-.356 0-.563-.82-.625-2.47q-.096-2.466-.297-2.515-.223.11-.563.469Q25.482.892 18.75.891q-7.642 0-12.547-5.485-4.657-5.154-4.656-12.453 0-7.577 4.687-12.734c3.282-3.602 7.551-5.407 12.813-5.407q4.765 0 8.328 2.626 1.622 1.312 3.203 2.671.312-.106.313-.5v-11.53q-.001-1.171-.125-3.548a84 84 0 0 1-.11-3.593c0-.57.203-.86.61-.86q1.389 0 4.156-.234t4.125-.235q.64 0 .64.75m-9.454 32.374q0-4.264-2.797-7.5-2.987-3.451-7.406-3.453-4.659 0-7.672 3.422-2.876 3.206-2.875 7.688-.002 4.266 2.985 7.437 3.06 3.345 7.562 3.344 4.53 0 7.485-3.39 2.718-3.153 2.718-7.548m0 0"/>
    </symbol>
    <symbol overflow="visible" id="l">
      <path style="stroke:none" d="M38.86-32.281q0 2.611-.235 7.86-.22 5.25-.219 7.874-.002 2.595.172 7.781.17 5.176.172 7.766c0 .48-.242.79-.719.922-.199.055-2.758.078-7.672.078q-.454 0-.547-2.672-.095-2.672-.437-2.672-.187 0-.562.328Q22.497.141 16.328.141c-5.562 0-9.242-1.895-11.031-5.688-1.117-2.351-1.672-6.578-1.672-12.672q0-8.249 1.406-13.984.341-1.39 1.25-1.39 1.09 0 3.282.046a212 212 0 0 0 3.296.031q.75.001.75.782c0 .93-.164 2.468-.484 4.625q-.532 3.457-.578 4.875a91 91 0 0 0-.11 4.703q0 6.22.938 8.36 1.64 3.843 7.234 3.843 2.373.001 5.625-2.219 3.435-2.31 3.563-4.437.187-2.673.187-18.797 0-1.735 1.547-1.735h6.235c.726 0 1.093.414 1.093 1.235m0 0"/>
    </symbol>
    <symbol overflow="visible" id="m">
      <path style="stroke:none" d="M30.25-32.281q-.001.797-.875 3.5-.879 2.704-1.219 2.703a238 238 0 0 0-3.422-1.422q-1.722-.717-3.75-.719-4.659.002-7.765 3.25-3.094 3.235-3.094 7.64-.001 4.35 3.11 7.5 3.169 3.282 7.75 3.282 2.53 0 4.984-1.172 2.449-1.172 2.156-1.172.497 0 1.094 2.985.576 2.705.578 3.734 0 1.112-4.438 2.172-3.704.89-5.468.89-7.8 0-13.157-5.484Q1.468-9.92 1.47-17.328c0-5.031 1.71-9.3 5.14-12.813 3.532-3.601 7.93-5.406 13.204-5.406q5.294 0 9.671 2.531.764.424.766.735m0 0"/>
    </symbol>
    <symbol overflow="visible" id="n">
      <path style="stroke:none" d="M40.594-32.203c0 .094-.04.308-.11.64q-1.469 8.156-1.468 14.063 0 .346.937 15.969l.047.5Q40.029-.001 38.984 0q-1.031 0-3.125.234c-1.398.157-2.437.235-3.125.235q-.719 0-1.093-2.485c-.25-1.664-.493-2.5-.72-2.5-.148 0-.827.465-2.046 1.391q-2.221 1.704-4.156 2.594Q21.732.889 18.75.89C13.863.89 9.742-.945 6.39-4.625c-3.18-3.508-4.765-7.602-4.765-12.281q0-7.888 4.797-13.063c3.351-3.57 7.766-5.36 13.234-5.36 3.852 0 7.219 1.259 10.094 3.767q.64.72 2 2.062.123.11.234.11.218.002.641-2.235.42-2.25 1.063-2.25c.675 0 1.945.18 3.812.531q3.094.644 3.094 1.14m-9.625 14.875q0-4.373-2.766-7.516-2.906-3.375-7.453-3.375-4.534.002-7.562 3.344-2.907 3.205-2.907 7.547 0 4.3 2.906 7.469 3.03 3.313 7.563 3.312 4.418 0 7.406-3.375 2.813-3.17 2.813-7.406m0 0"/>
    </symbol>
    <symbol overflow="visible" id="o">
      <path style="stroke:none" d="M24.906-6.547c0 .524-.047 1.234-.14 2.14q-.187 1.675-.235 2.173c-.023.43-.058.687-.11.78q-.156.255-.718.5Q20.61.424 13.953.423 5.108.424 5.11-7.11q0-3.03.141-9.094.155-6.076.156-9.094c0-.976-.515-1.5-1.547-1.562q-1.406 0-2.765-.047-.798-.17-.797-2.906-.002-1.03.156-2.172.107-.855 1.203-1.032.95 0 1.86-.046 1.734-.06 1.734-1.454 0-1.418-.094-4.343a149 149 0 0 1-.093-4.375c0-1.727.351-2.594 1.062-2.594q.341.002 7.11 1.094.857.113.859.78c0 1.056-.086 2.622-.25 4.704q-.235 3.128-.235 4.703-.002 1.031 1.016 1.031h9.078q.64 0 .64.422 0 .424-.14 1.375-.127.938-.125 1.407-.002.533.031 1.64.048 1.097.047 1.625 0 .674-1.062.672-1.52 0-4.578-.187c-2.032-.133-3.555-.204-4.563-.204q-.314.002-.453 2.032-.188 2.531-.188 7.078v5.312q-.002 3.064.594 4.266.903 1.845 3.75 1.844 1.17 0 3.438-.47 2.263-.481 3.36-.483.451 0 .452.64m0 0"/>
    </symbol>
    <symbol overflow="visible" id="p">
      <path style="stroke:none" d="M13.688-42.562q-.001 4.375-5.188 4.374-5.25 0-5.25-4.374-.001-1.952 1.625-3.235Q6.389-46.998 8.5-47q2.121.001 3.656 1.25 1.53 1.236 1.531 3.188m-.266 9.64q0 2.752-.36 8.281-.361 5.533-.359 8.313-.001 2.595.11 7.781.107 5.174.109 7.735c0 .492-.227.734-.672.734H4.875q-.797 0-.797-1.453-.001-2.452.125-7.375.14-4.936.14-7.422-.002-2.779-.437-8.328-.422-5.545-.422-8.328-.002-.61.782-.61.686 0 2.093.188 1.42.174 2.141.172.716.002 2.14-.172 1.42-.188 2.141-.188c.426 0 .64.227.64.672m0 0"/>
    </symbol>
    <symbol overflow="visible" id="q">
      <path style="stroke:none" d="M38.11-17.328q-.001 7.44-5.188 12.703C29.398-1 25.032.813 19.812.813q-7.86.001-13.156-5.407-5.188-5.23-5.186-12.672c0-4.945 1.726-9.164 5.187-12.656q5.327-5.344 13.157-5.344 7.78 0 13.078 5.344c3.476 3.461 5.218 7.656 5.218 12.594m-7.985.062q-.002-4.324-2.828-7.39-2.954-3.235-7.485-3.235-4.546.002-7.53 3.203c-1.887 2.063-2.829 4.54-2.829 7.422q-.001 4.284 2.875 7.407 3.013 3.313 7.485 3.312c3 0 5.492-1.101 7.484-3.312q2.826-3.123 2.828-7.407m0 0"/>
    </symbol>
    <symbol overflow="visible" id="r">
      <path style="stroke:none" d="M37.156-.719q0 .798-.75.797-1.252 0-3.734-.047A271 271 0 0 0 28.953 0q-.674 0-.672-1.031-.001-1.746.11-5.297.107-3.562.109-5.344 0-1.418-.047-4.25a353 353 0 0 1-.031-4.25c0-2.707-.414-4.617-1.234-5.734-1.012-1.32-2.883-1.985-5.61-1.985q-1.875.002-5.25 1.985c-2.367 1.398-3.547 2.64-3.547 3.734v21.36q-.002.89-.718.89A205 205 0 0 1 8.422.031 257 257 0 0 0 4.797 0Q4 0 4-.812q0-2.813.094-8.438c.07-3.75.11-6.57.11-8.469 0-5.05-.571-9.71-1.704-13.984q-.127-.328-.125-.469-.002-.34.5-.5.263-.03 4.328-.656 4.062-.623 4.25-.625.233.002.297.578.2 2.203.875 4.453 1.968-1.465 5.188-3.64 3.967-2.281 7.671-2.282 7.108 0 9.703 3.89c1.29 1.9 1.938 4.97 1.938 9.22q-.002 1.095-.062 3.375a183 183 0 0 0-.047 3.422q0 2.376.062 7.109.076 4.735.078 7.11m0 0"/>
    </symbol>
  </defs>
  <g style="fill:#f03f2b;fill-opacity:1" transform="translate(-11.794 -17.772)scale(.24088)">
    <use xlink:href="#a" x="40.944" y="196.793" width="100%" height="100%"/>
    <use xlink:href="#b" x="198.944" y="196.793" width="100%" height="100%"/>
    <use xlink:href="#c" x="294.234" y="196.793" width="100%" height="100%"/>
    <use xlink:href="#d" x="368.854" y="196.793" width="100%" height="100%"/>
  </g>
  <g style="fill:#f03f2b;fill-opacity:1" transform="translate(-11.794 -17.772)scale(.24088)">
    <use xlink:href="#e" x="461.162" y="196.793" width="100%" height="100%"/>
    <use xlink:href="#e" x="498.15" y="196.793" width="100%" height="100%"/>
  </g>
  <use xlink:href="#f" x="535.134" y="196.793" width="100%" height="100%" style="fill:#453599;fill-opacity:1" transform="translate(-11.794 -17.772)scale(.24088)"/>
  <use xlink:href="#g" x="580.149" y="196.793" width="100%" height="100%" style="fill:#453599;fill-opacity:1" transform="translate(-11.794 -17.772)scale(.24088)"/>
  <use xlink:href="#h" x="608.796" y="196.793" width="100%" height="100%" style="fill:#453599;fill-opacity:1" transform="translate(-11.794 -17.772)scale(.24088)"/>
  <g style="fill:#f03f2b;fill-opacity:1" transform="translate(-11.794 -17.772)scale(.24088)">
    <use xlink:href="#i" x="638.167" y="196.793" width="100%" height="100%"/>
    <use xlink:href="#b" x="706.657" y="196.793" width="100%" height="100%"/>
  </g>
  <g style="fill:#473599;fill-opacity:1" transform="translate(-11.794 -17.772)scale(.24088)">
    <use xlink:href="#j" x="473.744" y="256.027" width="100%" height="100%"/>
    <use xlink:href="#k" x="511.06" y="256.027" width="100%" height="100%"/>
    <use xlink:href="#l" x="554.104" y="256.027" width="100%" height="100%"/>
    <use xlink:href="#m" x="596.839" y="256.027" width="100%" height="100%"/>
    <use xlink:href="#n" x="627.962" y="256.027" width="100%" height="100%"/>
    <use xlink:href="#o" x="670.851" y="256.027" width="100%" height="100%"/>
    <use xlink:href="#p" x="697.328" y="256.027" width="100%" height="100%"/>
    <use xlink:href="#q" x="714.36" y="256.027" width="100%" height="100%"/>
    <use xlink:href="#r" x="753.921" y="256.027" width="100%" height="100%"/>
  </g>
  <path style="fill:#f03f2b;fill-opacity:1;fill-rule:nonzero;stroke:none" d="M494.172 150.566c0 7.996-6.48 14.48-14.477 14.48s-14.476-6.484-14.476-14.48 6.48-14.48 14.476-14.48 14.477 6.484 14.477 14.48" transform="translate(-11.794 -17.772)scale(.24088)"/>
  <path style="fill:#453599;fill-opacity:1;fill-rule:nonzero;stroke:none" d="M491.91 128.168c.531 0 1.035-.195 1.442-.54 5.59-4.75 12.828-7.624 20.718-7.624 6.942 0 13.532 2.176 19.075 6.289 2.933 2.18 7.046 2.16 9.69-.36a7.382 7.382 0 0 0-.608-11.273c-8.168-6.156-17.903-9.41-28.157-9.41-15.59 0-29.418 7.664-37.93 19.422-1.054 1.457.012 3.496 1.81 3.496zm86.488 8.141a7.377 7.377 0 0 0-10.433.238c-1.477 1.547-4.266 5.035-9.07 11.066-7.485 9.399-20.016 25.13-24.915 29.07-4.792 3.856-10.523 7.43-19.906 7.43-9.336 0-17.746-4.015-23.613-10.41a2.24 2.24 0 0 0-1.648-.738h-12.844c-1.723 0-2.797 1.887-1.903 3.355 8.22 13.508 23.075 22.551 40.008 22.551 14.07 0 22.977-5.715 29.16-10.691 5.707-4.594 15.696-16.926 27.204-31.375 3.496-4.387 7.109-8.922 8.199-10.067a7.375 7.375 0 0 0-.239-10.43m30.997 39.642c-.528 0-1.036.198-1.438.542-5.594 4.75-12.828 7.621-20.723 7.621-6.937 0-13.527-2.172-19.074-6.289-2.933-2.176-7.047-2.16-9.691.36a7.387 7.387 0 0 0 .613 11.277c8.164 6.156 17.898 9.41 28.152 9.41 15.594 0 29.422-7.668 37.934-19.422 1.05-1.457-.012-3.5-1.809-3.5zm0 0" transform="translate(-11.794 -17.772)scale(.24088)"/>
  <path style="fill:#453599;fill-opacity:1;fill-rule:nonzero;stroke:none" d="M522.91 167.813a7.376 7.376 0 0 0 10.43-.243c1.476-1.547 4.265-5.03 9.07-11.062 7.485-9.399 20.016-25.13 24.914-29.07 4.793-3.86 10.528-7.434 19.91-7.434 9.336 0 17.746 4.02 23.61 10.41.426.465 1.02.742 1.648.742h12.848c1.719 0 2.797-1.886 1.898-3.36-8.218-13.503-23.07-22.546-40.004-22.546-14.074 0-22.976 5.715-29.164 10.691-5.703 4.594-15.695 16.926-27.203 31.372-3.492 4.39-7.105 8.925-8.199 10.066-2.813 2.95-2.707 7.621.242 10.434" transform="translate(-11.794 -17.772)scale(.24088)"/>
  <path style="fill:#f03f2b;fill-opacity:1;fill-rule:nonzero;stroke:none" d="M636.09 153.55c0 8-6.48 14.481-14.477 14.481-8 0-14.48-6.48-14.48-14.48 0-7.996 6.48-14.477 14.48-14.477 7.996 0 14.477 6.48 14.477 14.477" transform="translate(-11.794 -17.772)scale(.24088)"/>
</svg>
